<svg width="730" height="280" viewBox="0 0 730 280" fill="none" xmlns="http://www.w3.org/2000/svg">
<mask id="mask0_11:27" style="mask-type:alpha" maskUnits="userSpaceOnUse" x="0" y="0" width="730" height="280">
<path d="M538.692 1.53678C609.075 -7.02245 673.723 21.3116 705.004 58.2048C736.807 95.3931 734.2 141.436 719.602 182.756C704.483 223.782 677.372 260.085 621.587 273.366C566.324 286.648 481.864 276.908 426.6 270.71C370.816 264.512 343.705 262.151 319.201 259.199C295.219 256.543 273.844 253.296 244.648 250.935C215.973 248.279 178.957 246.213 142.462 235.883C105.446 225.257 68.9511 206.368 39.7552 178.034C10.5593 149.7 -10.2949 111.626 5.34578 80.6359C21.5078 49.6455 74.1646 25.4436 132.035 30.1659C189.905 34.5931 253.511 67.9446 322.851 61.7465C392.191 55.8436 468.309 10.096 538.692 1.53678Z" fill="black"/>
</mask>
<g mask="url(#mask0_11:27)">
<path d="M538.692 1.53678C609.075 -7.02245 673.723 21.3116 705.004 58.2048C736.807 95.3931 734.2 141.436 719.602 182.756C704.483 223.782 677.372 260.085 621.587 273.366C566.324 286.648 481.864 276.908 426.6 270.71C370.816 264.512 343.705 262.151 319.201 259.199C295.219 256.543 273.844 253.296 244.648 250.935C215.973 248.279 178.957 246.213 142.462 235.883C105.446 225.257 68.9511 206.368 39.7552 178.034C10.5593 149.7 -10.2949 111.626 5.34578 80.6359C21.5078 49.6455 74.1646 25.4436 132.035 30.1659C189.905 34.5931 253.511 67.9446 322.851 61.7465C392.191 55.8436 468.309 10.096 538.692 1.53678Z" fill="#210510"/>
</g>
</svg>
