<svg width="485" height="475" viewBox="0 0 485 475" fill="none" xmlns="http://www.w3.org/2000/svg">
<mask id="mask0_4:12" style="mask-type:alpha" maskUnits="userSpaceOnUse" x="0" y="0" width="485" height="475">
<path d="M373.733 95.758C420.325 121.718 476.069 130.155 483.557 155.466C491.045 180.777 450.277 222.637 449.445 264.173C448.613 305.709 487.717 346.921 480.229 372.232C472.741 397.543 419.077 406.953 373.317 415.715C327.557 424.476 290.117 432.589 241.445 447.516C193.189 462.118 133.701 484.184 98.7573 470.555C63.8133 456.926 53.4133 407.927 45.5093 367.689C37.6053 327.451 32.1973 295.974 21.7973 259.63C10.9813 223.611 -4.82669 182.399 1.41331 139.89C7.65331 97.3805 35.5253 53.2485 80.8693 26.6395C126.629 0.354987 189.445 -8.40649 239.781 9.11651C290.117 26.315 327.557 69.798 373.733 95.758Z" fill="black"/>
</mask>
<g mask="url(#mask0_4:12)">
<path d="M373.733 95.758C420.325 121.718 476.069 130.155 483.557 155.466C491.045 180.777 450.277 222.637 449.445 264.173C448.613 305.709 487.717 346.921 480.229 372.232C472.741 397.543 419.077 406.953 373.317 415.715C327.557 424.476 290.117 432.589 241.445 447.516C193.189 462.118 133.701 484.184 98.7573 470.555C63.8133 456.926 53.4133 407.927 45.5093 367.689C37.6053 327.451 32.1973 295.974 21.7973 259.63C10.9813 223.611 -4.82669 182.399 1.41331 139.89C7.65331 97.3805 35.5253 53.2485 80.8693 26.6395C126.629 0.354987 189.445 -8.40649 239.781 9.11651C290.117 26.315 327.557 69.798 373.733 95.758Z" fill="black"/>
</g>
</svg>
