<svg width="285" height="278" viewBox="0 0 285 278" fill="none" xmlns="http://www.w3.org/2000/svg">
<mask id="mask0_4:12" style="mask-type:alpha" maskUnits="userSpaceOnUse" x="0" y="0" width="285" height="278">
<path d="M219.854 56.064C247.263 71.263 280.055 76.2026 284.46 91.0216C288.865 105.841 264.883 130.349 264.393 154.667C263.904 178.986 286.907 203.114 282.502 217.933C278.097 232.752 246.529 238.262 219.61 243.391C192.691 248.521 170.666 253.27 142.034 262.01C113.647 270.559 78.6519 283.478 58.0955 275.499C37.5392 267.52 31.4212 238.831 26.7716 215.273C22.1219 191.715 18.9406 173.286 12.8226 152.007C6.45993 130.919 -2.83938 106.791 0.831401 81.9022C4.50218 57.0139 20.8983 31.1757 47.5726 15.5968C74.4917 0.207836 111.444 -4.9218 141.055 5.3375C170.666 15.4068 192.691 40.8651 219.854 56.064Z" fill="black"/>
</mask>
<g mask="url(#mask0_4:12)">
<path d="M219.854 56.064C247.263 71.263 280.055 76.2026 284.46 91.0216C288.865 105.841 264.883 130.349 264.393 154.667C263.904 178.986 286.907 203.114 282.502 217.933C278.097 232.752 246.529 238.262 219.61 243.391C192.691 248.521 170.666 253.27 142.034 262.01C113.647 270.559 78.6519 283.478 58.0955 275.499C37.5392 267.52 31.4212 238.831 26.7716 215.273C22.1219 191.715 18.9406 173.286 12.8226 152.007C6.45993 130.919 -2.83938 106.791 0.831401 81.9022C4.50218 57.0139 20.8983 31.1757 47.5726 15.5968C74.4917 0.207836 111.444 -4.9218 141.055 5.3375C170.666 15.4068 192.691 40.8651 219.854 56.064Z" fill="black"/>
</g>
</svg>
