<svg width="491" height="310" viewBox="0 0 491 310" fill="none" xmlns="http://www.w3.org/2000/svg">
<mask id="mask0_23:36" style="mask-type:alpha" maskUnits="userSpaceOnUse" x="117" y="67" width="206" height="160">
<path d="M305.402 116.405C319.886 136.4 326.515 152.055 320.132 163.99C313.503 175.925 293.863 184.295 267.595 197.47C241.326 210.8 208.184 228.935 179.706 225.99C150.982 223.2 126.678 199.485 119.804 174.685C112.684 149.885 122.995 124.31 147.054 102.92C170.868 81.53 208.184 64.325 238.135 68.045C268.086 71.765 290.672 96.255 305.402 116.405Z" fill="#FF0066"/>
</mask>
<g mask="url(#mask0_23:36)">
<rect x="62" y="35" width="295" height="239" fill="#C4C4C4"/>
<path d="M305.811 116.868C320.296 136.863 326.924 152.518 320.541 164.453C313.913 176.388 294.273 184.758 268.004 197.933C241.736 211.263 208.593 229.398 180.115 226.453C151.392 223.663 127.087 199.948 120.213 175.148C113.094 150.348 123.405 124.773 147.464 103.383C171.277 81.9934 208.593 64.7884 238.544 68.5084C268.495 72.2284 291.081 96.7184 305.811 116.868Z" fill="black"/>
</g>
</svg>
