<svg width="1535" height="547" viewBox="0 0 1535 547" fill="none" xmlns="http://www.w3.org/2000/svg">
<mask id="mask0_11:28" style="mask-type:alpha" maskUnits="userSpaceOnUse" x="730" y="169" width="805" height="320">
<path d="M1323.6 170.752C1401.16 160.994 1472.4 193.298 1506.87 235.36C1541.91 277.759 1539.04 330.253 1522.96 377.363C1506.3 424.137 1476.42 465.526 1414.95 480.669C1354.05 495.811 1260.98 484.707 1200.09 477.64C1138.62 470.574 1108.74 467.882 1081.74 464.517C1055.31 461.488 1031.76 457.787 999.586 455.095C967.989 452.066 927.199 449.711 886.984 437.933C846.195 425.819 805.98 404.283 773.808 371.979C741.636 339.675 718.656 296.267 735.891 260.934C753.7 225.602 811.725 198.009 875.494 203.393C939.264 208.44 1009.35 246.465 1085.76 239.398C1162.17 232.668 1246.05 180.511 1323.6 170.752Z" fill="black"/>
</mask>
<g mask="url(#mask0_11:28)">
<path d="M1323.6 170.752C1401.16 160.994 1472.4 193.298 1506.87 235.36C1541.91 277.759 1539.04 330.253 1522.96 377.363C1506.3 424.137 1476.42 465.526 1414.95 480.669C1354.05 495.811 1260.98 484.707 1200.09 477.64C1138.62 470.574 1108.74 467.882 1081.74 464.517C1055.31 461.488 1031.76 457.787 999.586 455.095C967.989 452.066 927.199 449.711 886.984 437.933C846.195 425.819 805.98 404.283 773.808 371.979C741.636 339.675 718.656 296.267 735.891 260.934C753.7 225.602 811.725 198.009 875.494 203.393C939.264 208.44 1009.35 246.465 1085.76 239.398C1162.17 232.668 1246.05 180.511 1323.6 170.752Z" fill="#210510"/>
</g>
<mask id="mask1_11:28" style="mask-type:alpha" maskUnits="userSpaceOnUse" x="0" y="0" width="597" height="547">
<path d="M460.537 110.313C517.951 140.219 586.642 149.938 595.869 179.096C605.096 208.255 554.859 256.478 553.834 304.327C552.809 352.177 600.995 399.652 591.768 428.81C582.541 457.969 516.413 468.81 460.025 478.903C403.636 488.996 357.5 498.342 297.524 515.537C238.06 532.359 164.755 557.779 121.695 542.079C78.6347 526.378 65.8192 469.931 56.0794 423.577C46.3396 377.223 39.6755 340.962 26.86 299.094C13.5319 257.599 -5.94774 210.124 1.74157 161.153C9.43088 112.182 43.7765 61.3421 99.6521 30.6886C156.04 0.408944 233.446 -9.68426 295.473 10.5022C357.5 30.3148 403.636 80.4071 460.537 110.313Z" fill="black"/>
</mask>
<g mask="url(#mask1_11:28)">
<path d="M460.537 110.313C517.951 140.219 586.642 149.938 595.869 179.096C605.096 208.255 554.859 256.478 553.834 304.327C552.809 352.177 600.995 399.652 591.768 428.81C582.541 457.969 516.413 468.81 460.025 478.903C403.636 488.996 357.5 498.342 297.524 515.537C238.06 532.359 164.755 557.779 121.695 542.079C78.6347 526.378 65.8192 469.931 56.0794 423.577C46.3396 377.223 39.6755 340.962 26.86 299.094C13.5319 257.599 -5.94774 210.124 1.74157 161.153C9.43088 112.182 43.7765 61.3421 99.6521 30.6886C156.04 0.408944 233.446 -9.68426 295.473 10.5022C357.5 30.3148 403.636 80.4071 460.537 110.313Z" fill="black"/>
</g>
</svg>
